<svg width="24" height="24" viewBox="0 0 24 24" fill="none" xmlns="http://www.w3.org/2000/svg">
<path d="M12.6,2L12.58,2.01L12.56,2L12,2.25L3.34,6.2L3.33,6.21L3.3,6.24L3.28,6.26L3.29,6.28L3.25,6.33L3.23,6.36L3.18,6.43L3.15,6.47L3.13,6.5L3.1,6.57L3.08,6.62L3,6.85V17.15L3.08,17.38L3.1,17.43L3.13,17.5L3.15,17.53L3.18,17.57L3.23,17.64L3.25,17.67L3.29,17.72L3.28,17.74L3.3,17.76L3.33,17.79L3.34,17.8L12,21.75L20.66,17.8L20.67,17.79L20.7,17.76L20.72,17.74L20.71,17.72L20.75,17.67L20.77,17.64L20.82,17.57L20.85,17.53L20.87,17.5L20.9,17.43L20.92,17.38L21,17.15V6.85L20.92,6.62L20.9,6.57L20.87,6.5L20.85,6.47L20.82,6.43L20.77,6.36L20.75,6.33L20.71,6.28L20.72,6.26L20.7,6.24L20.67,6.21L20.66,6.2L12,2.25L12.6,2ZM12,4.15L18.5,7.11L12,10.06L5.5,7.11L12,4.15ZM5,8.96L11,11.68V19.12L5,16.4V8.96ZM13,19.12V11.68L19,8.96V16.4L13,19.12Z" fill="currentColor"/>
</svg>
